<svg xmlns="http://www.w3.org/2000/svg" xmlns:cc="http://web.resource.org/cc/" xmlns:svg="http://www.w3.org/2000/svg" xmlns:xlink="http://www.w3.org/1999/xlink" id="svg3697" width="48" height="48" version="1.0"><defs id="defs3699"><linearGradient id="linearGradient3862"><stop style="stop-color:#483493;stop-opacity:1" id="stop3864" offset="0"/><stop style="stop-color:#1f1936;stop-opacity:1" id="stop3866" offset="1"/></linearGradient><linearGradient id="linearGradient3856"><stop style="stop-color:#cec6f9;stop-opacity:1" id="stop3858" offset="0"/><stop style="stop-color:#8b71eb;stop-opacity:1" id="stop3860" offset="1"/></linearGradient><linearGradient id="linearGradient3850"><stop id="stop3852" offset="0" style="stop-color:#8b95e6;stop-opacity:1"/><stop id="stop3854" offset="1" style="stop-color:#847cdf;stop-opacity:1"/></linearGradient><linearGradient id="linearGradient3804"><stop id="stop3806" offset="0" style="stop-color:#464097;stop-opacity:1"/><stop id="stop3808" offset="1" style="stop-color:#29293b;stop-opacity:1"/></linearGradient><linearGradient id="linearGradient3794"><stop id="stop3796" offset="0" style="stop-color:#eee5fb;stop-opacity:1"/><stop id="stop3798" offset="1" style="stop-color:#9f9bc1;stop-opacity:1"/></linearGradient><linearGradient id="linearGradient3770"><stop style="stop-color:#aeacc7;stop-opacity:1" id="stop3772" offset="0"/><stop style="stop-color:#a19ec8;stop-opacity:1" id="stop3774" offset="1"/></linearGradient><radialGradient id="radialGradient3788" cx="7.12" cy="3.53" r="2.521" fx="7.12" fy="3.53" gradientUnits="userSpaceOnUse" xlink:href="#linearGradient3770"/><radialGradient id="radialGradient3792" cx="7.639" cy="2.131" r="2.521" fx="7.639" fy="2.131" gradientTransform="matrix(1.5905007,-1.0269578e-2,1.0269364e-2,1.5904675,-4.5385807,-1.7383567)" gradientUnits="userSpaceOnUse" xlink:href="#linearGradient3794"/><radialGradient id="radialGradient3802" cx="7.632" cy="4.027" r="2.521" fx="7.632" fy="4.027" gradientTransform="matrix(2.6871169,2.6177942e-7,-1.751068e-7,1.7949189,-12.876884,-3.6298631)" gradientUnits="userSpaceOnUse" xlink:href="#linearGradient3804"/><radialGradient id="radialGradient3815" cx="7.632" cy="4.027" r="2.521" fx="7.632" fy="4.027" gradientTransform="matrix(2.6871169,2.6177942e-7,-1.751068e-7,1.7949189,-12.876884,-3.6298631)" gradientUnits="userSpaceOnUse" xlink:href="#linearGradient3804"/><radialGradient id="radialGradient3817" cx="7.639" cy="2.131" r="2.521" fx="7.639" fy="2.131" gradientTransform="matrix(1.5905007,-1.0269578e-2,1.0269364e-2,1.5904675,-4.5385807,-1.7383567)" gradientUnits="userSpaceOnUse" xlink:href="#linearGradient3794"/><radialGradient id="radialGradient3819" cx="7.12" cy="3.53" r="2.521" fx="7.12" fy="3.53" gradientUnits="userSpaceOnUse" xlink:href="#linearGradient3770"/><radialGradient id="radialGradient3829" cx="7.632" cy="4.027" r="2.521" fx="7.632" fy="4.027" gradientTransform="matrix(2.6871169,2.6177942e-7,-1.751068e-7,1.7949189,-12.876884,-3.6298631)" gradientUnits="userSpaceOnUse" xlink:href="#linearGradient3804"/><radialGradient id="radialGradient3831" cx="7.639" cy="2.131" r="2.521" fx="7.639" fy="2.131" gradientTransform="matrix(1.5905007,-1.0269578e-2,1.0269364e-2,1.5904675,-4.5385807,-1.7383567)" gradientUnits="userSpaceOnUse" xlink:href="#linearGradient3794"/><radialGradient id="radialGradient3833" cx="7.12" cy="3.53" r="2.521" fx="7.12" fy="3.53" gradientUnits="userSpaceOnUse" xlink:href="#linearGradient3770"/><radialGradient id="radialGradient3844" cx="7.632" cy="4.027" r="2.521" fx="7.632" fy="4.027" gradientTransform="matrix(2.6871169,2.6177942e-7,-1.751068e-7,1.7949189,-12.876884,-3.6298631)" gradientUnits="userSpaceOnUse" xlink:href="#linearGradient3862"/><radialGradient id="radialGradient3846" cx="7.639" cy="2.131" r="2.521" fx="7.639" fy="2.131" gradientTransform="matrix(1.5905007,-1.0269578e-2,1.0269364e-2,1.5904675,-4.5385807,-1.7383567)" gradientUnits="userSpaceOnUse" xlink:href="#linearGradient3856"/><radialGradient id="radialGradient3848" cx="7.12" cy="3.53" r="2.521" fx="7.12" fy="3.53" gradientUnits="userSpaceOnUse" xlink:href="#linearGradient3850"/><radialGradient id="radialGradient3881" cx="7.632" cy="4.027" r="2.521" fx="7.632" fy="4.027" gradientTransform="matrix(2.6871169,2.6177942e-7,-1.751068e-7,1.7949189,-12.876884,-3.6298631)" gradientUnits="userSpaceOnUse" xlink:href="#linearGradient3862"/><radialGradient id="radialGradient3883" cx="7.639" cy="2.131" r="2.521" fx="7.639" fy="2.131" gradientTransform="matrix(1.5905007,-1.0269578e-2,1.0269364e-2,1.5904675,-4.5385807,-1.7383567)" gradientUnits="userSpaceOnUse" xlink:href="#linearGradient3856"/><radialGradient id="radialGradient3885" cx="7.12" cy="3.53" r="2.521" fx="7.12" fy="3.53" gradientUnits="userSpaceOnUse" xlink:href="#linearGradient3850"/><radialGradient id="radialGradient3887" cx="7.632" cy="4.027" r="2.521" fx="7.632" fy="4.027" gradientTransform="matrix(2.6871169,2.6177942e-7,-1.751068e-7,1.7949189,-12.876884,-3.6298631)" gradientUnits="userSpaceOnUse" xlink:href="#linearGradient3862"/><radialGradient id="radialGradient3889" cx="7.639" cy="2.131" r="2.521" fx="7.639" fy="2.131" gradientTransform="matrix(1.5905007,-1.0269578e-2,1.0269364e-2,1.5904675,-4.5385807,-1.7383567)" gradientUnits="userSpaceOnUse" xlink:href="#linearGradient3856"/><radialGradient id="radialGradient3891" cx="7.12" cy="3.53" r="2.521" fx="7.12" fy="3.53" gradientUnits="userSpaceOnUse" xlink:href="#linearGradient3850"/><radialGradient id="radialGradient3893" cx="7.12" cy="3.53" r="2.521" fx="7.12" fy="3.53" gradientUnits="userSpaceOnUse" xlink:href="#linearGradient3770"/><radialGradient id="radialGradient3895" cx="7.639" cy="2.131" r="2.521" fx="7.639" fy="2.131" gradientTransform="matrix(1.5905007,-1.0269578e-2,1.0269364e-2,1.5904675,-4.5385807,-1.7383567)" gradientUnits="userSpaceOnUse" xlink:href="#linearGradient3794"/><radialGradient id="radialGradient3897" cx="7.632" cy="4.027" r="2.521" fx="7.632" fy="4.027" gradientTransform="matrix(2.6871169,2.6177942e-7,-1.751068e-7,1.7949189,-12.876884,-3.6298631)" gradientUnits="userSpaceOnUse" xlink:href="#linearGradient3804"/><radialGradient id="radialGradient2216" cx="7.632" cy="4.027" r="2.521" fx="7.632" fy="4.027" gradientTransform="matrix(2.6871169,2.6177942e-7,-1.751068e-7,1.7949189,-12.876884,-3.6298631)" gradientUnits="userSpaceOnUse" xlink:href="#linearGradient3804"/><radialGradient id="radialGradient2218" cx="7.639" cy="2.131" r="2.521" fx="7.639" fy="2.131" gradientTransform="matrix(1.5905007,-1.0269578e-2,1.0269364e-2,1.5904675,-4.5385807,-1.7383567)" gradientUnits="userSpaceOnUse" xlink:href="#linearGradient3794"/><radialGradient id="radialGradient2220" cx="7.12" cy="3.53" r="2.521" fx="7.12" fy="3.53" gradientUnits="userSpaceOnUse" xlink:href="#linearGradient3770"/><radialGradient id="radialGradient3203" cx="7.632" cy="4.027" r="2.521" fx="7.632" fy="4.027" gradientTransform="matrix(2.6871169,2.6177942e-7,-1.751068e-7,1.7949189,-12.876884,-3.6298631)" gradientUnits="userSpaceOnUse" xlink:href="#linearGradient3804"/><radialGradient id="radialGradient3205" cx="7.639" cy="2.131" r="2.521" fx="7.639" fy="2.131" gradientTransform="matrix(1.5905007,-1.0269578e-2,1.0269364e-2,1.5904675,-4.5385807,-1.7383567)" gradientUnits="userSpaceOnUse" xlink:href="#linearGradient3794"/><radialGradient id="radialGradient3207" cx="7.12" cy="3.53" r="2.521" fx="7.12" fy="3.53" gradientUnits="userSpaceOnUse" xlink:href="#linearGradient3770"/><radialGradient id="radialGradient3217" cx="7.632" cy="4.027" r="2.521" fx="7.632" fy="4.027" gradientTransform="matrix(2.6871169,2.6177942e-7,-1.751068e-7,1.7949189,-12.876884,-3.6298631)" gradientUnits="userSpaceOnUse" xlink:href="#linearGradient3862"/><radialGradient id="radialGradient3219" cx="7.639" cy="2.131" r="2.521" fx="7.639" fy="2.131" gradientTransform="matrix(1.5905007,-1.0269578e-2,1.0269364e-2,1.5904675,-4.5385807,-1.7383567)" gradientUnits="userSpaceOnUse" xlink:href="#linearGradient3856"/><radialGradient id="radialGradient3221" cx="7.12" cy="3.53" r="2.521" fx="7.12" fy="3.53" gradientUnits="userSpaceOnUse" xlink:href="#linearGradient3850"/></defs><metadata id="metadata3702"/><g id="layer1"><g id="g3185" transform="matrix(0.9850951,0,0,0.9850951,0.4228796,0.5142787)"><path id="path3800" d="M 10.153846 4.094017 A 2.5213675 2.5213675 0 1 1 5.1111112,4.094017 A 2.5213675 2.5213675 0 1 1 10.153846 4.094017 z" transform="matrix(2.8182772,0,0,2.8182772,2.4234116,-0.8937005)" style="fill:url(#radialGradient2216);fill-opacity:1;stroke:none"/><path id="path3790" d="M 10.153846 4.094017 A 2.5213675 2.5213675 0 1 1 5.1111112,4.094017 A 2.5213675 2.5213675 0 1 1 10.153846 4.094017 z" transform="matrix(2.4675728,0,0,2.4775297,5.1348034,0.5069042)" style="fill:url(#radialGradient2218);fill-opacity:1;stroke:none"/><path id="path3765" d="M 10.153846 4.094017 A 2.5213675 2.5213675 0 1 1 5.1111112,4.094017 A 2.5213675 2.5213675 0 1 1 10.153846 4.094017 z" transform="matrix(1.8688936,0,0,1.8764348,9.6962225,3.0078915)" style="fill:url(#radialGradient2220);fill-opacity:1;stroke:none"/></g><g id="g3190" transform="matrix(0.9846397,0,0,0.9824171,0.2007479,0.5761166)"><path id="path3838" d="M 10.153846 4.094017 A 2.5213675 2.5213675 0 1 1 5.1111112,4.094017 A 2.5213675 2.5213675 0 1 1 10.153846 4.094017 z" transform="matrix(2.8195807,0,0,2.8195807,15.852927,12.315787)" style="fill:url(#radialGradient3887);fill-opacity:1;stroke:none"/><path id="path3840" d="M 10.153846 4.094017 A 2.5213675 2.5213675 0 1 1 5.1111112,4.094017 A 2.5213675 2.5213675 0 1 1 10.153846 4.094017 z" transform="matrix(2.4675728,0,0,2.4775297,18.554955,13.700977)" style="fill:url(#radialGradient3889);fill-opacity:1;stroke:none"/><path id="path3842" d="M 10.153846 4.094017 A 2.5213675 2.5213675 0 1 1 5.1111112,4.094017 A 2.5213675 2.5213675 0 1 1 10.153846 4.094017 z" transform="matrix(1.8688936,0,0,1.8764348,23.116374,16.201965)" style="fill:url(#radialGradient3891);fill-opacity:1;stroke:none"/></g><g id="g3195" transform="matrix(0.9850952,0,0,0.9850951,-12.577123,13.514279)"><path id="path3197" d="M 10.153846 4.094017 A 2.5213675 2.5213675 0 1 1 5.1111112,4.094017 A 2.5213675 2.5213675 0 1 1 10.153846 4.094017 z" transform="matrix(2.8182772,0,0,2.8182772,2.4234116,-0.8937005)" style="fill:url(#radialGradient3203);fill-opacity:1;stroke:none"/><path id="path3199" d="M 10.153846 4.094017 A 2.5213675 2.5213675 0 1 1 5.1111112,4.094017 A 2.5213675 2.5213675 0 1 1 10.153846 4.094017 z" transform="matrix(2.4675728,0,0,2.4775297,5.1348034,0.5069042)" style="fill:url(#radialGradient3205);fill-opacity:1;stroke:none"/><path id="path3201" d="M 10.153846 4.094017 A 2.5213675 2.5213675 0 1 1 5.1111112,4.094017 A 2.5213675 2.5213675 0 1 1 10.153846 4.094017 z" transform="matrix(1.8688936,0,0,1.8764348,9.6962225,3.0078915)" style="fill:url(#radialGradient3207);fill-opacity:1;stroke:none"/></g><g id="g3209" transform="matrix(0.9846397,0,0,0.9846397,-12.799251,13.507286)"><path id="path3211" d="M 10.153846 4.094017 A 2.5213675 2.5213675 0 1 1 5.1111112,4.094017 A 2.5213675 2.5213675 0 1 1 10.153846 4.094017 z" transform="matrix(2.8195807,0,0,2.8195807,15.852927,12.315787)" style="fill:url(#radialGradient3217);fill-opacity:1;stroke:none"/><path id="path3213" d="M 10.153846 4.094017 A 2.5213675 2.5213675 0 1 1 5.1111112,4.094017 A 2.5213675 2.5213675 0 1 1 10.153846 4.094017 z" transform="matrix(2.4675728,0,0,2.4775297,18.554955,13.700977)" style="fill:url(#radialGradient3219);fill-opacity:1;stroke:none"/><path id="path3215" d="M 10.153846 4.094017 A 2.5213675 2.5213675 0 1 1 5.1111112,4.094017 A 2.5213675 2.5213675 0 1 1 10.153846 4.094017 z" transform="matrix(1.8688936,0,0,1.8764348,23.116374,16.201965)" style="fill:url(#radialGradient3221);fill-opacity:1;stroke:none"/></g></g></svg>